#!OML:ASF H:\Terrain\Walking\May29\JustinRory\Justin.ASF
:FULLY-SPECIFIED
:DEGREES
193
root 7.33842 17.418 -15.6866 3.41503 -4.90195 -1.72062
lowerback 6.1308 0.800415 1.79373
upperback 0.740691 1.25801 2.58111
thorax -2.69378 0.618303 1.54801
lowerneck -18.9289 -1.71976 -9.90419
upperneck 17.057 -0.377808 3.93649
head 8.46662 -0.414528 2.90666
rclavicle 3.77691e-015 -9.54166e-015
rhumerus 11.9927 6.29946 -34.6891
rradius 109.197
rwrist -9.24178
rhand -36.8345 27.8401
rfingers 7.12502
rthumb -9.91497 -1.90643
lclavicle 3.77691e-015 -9.54166e-015
lhumerus -2.15473 -16.4429 42.2405
lradius 112.408
lwrist 3.65399
lhand -13.4665 31.7305
lfingers 7.12502
lthumb 12.6435 61.3278
rfemur -11.7374 -3.11424 21.2189
rtibia 27.9274
rfoot -16.4119 -7.91902
rtoes 0.47463
lfemur -10.9611 5.72299 -13.1448
ltibia 29.3234
lfoot -17.8336 4.48357
ltoes -20.4602
194
root 7.34493 17.4066 -15.6826 3.53622 -5.0756 -2.30015
lowerback 6.18481 0.75757 2.34914
upperback 0.653517 1.24726 2.71597
thorax -2.80521 0.606601 1.3756
lowerneck -19.4395 -1.40767 -9.08574
upperneck 17.463 0.0100501 3.27196
head 8.66577 -0.255745 2.60235
rclavicle 4.27387e-015 2.94201e-014
rhumerus 10.9782 6.62507 -36.0579
rradius 109.929
rwrist -10.6071
rhand -36.2618 29.4177
rfingers 7.12502
rthumb -9.36246 -0.354353
lclavicle 4.27387e-015 2.94201e-014
lhumerus -3.58208 -16.7252 42.6263
lradius 112.896
lwrist 4.12436
lhand -12.6961 30.1932
lfingers 7.12502
lthumb 13.3861 59.7431
rfemur -11.9801 -2.9769 21.8521
rtibia 28.1588
rfoot -16.5152 -7.99796
rtoes 0.203464
lfemur -11.2825 6.03956 -12.4937
ltibia 29.8595
lfoot -18.1475 4.38142
ltoes -20.8396
195
root 7.34865 17.3915 -15.6794 3.63301 -5.20109 -2.70186
lowerback 6.20372 0.748012 2.68683
upperback 0.613946 1.26262 2.8124
thorax -2.85186 0.610235 1.2843
lowerneck -19.1998 -1.31928 -9.02919
upperneck 17.2914 0.120147 3.13077
head 8.55832 -0.212395 2.55514
rclavicle 6.16232e-015 2.8625e-014
rhumerus 9.72399 6.71408 -37.7602
rradius 110.788
rwrist -12.0546
rhand -35.5713 30.8821
rfingers 7.12502
rthumb -8.69613 1.08119
lclavicle 6.16232e-015 2.8625e-014
lhumerus -4.7 -16.8803 43.0796
lradius 113.256
lwrist 4.595
lhand -12.1021 28.7923
lfingers 7.12502
lthumb 13.9586 58.3038
rfemur -12.1657 -2.85931 22.3172
rtibia 28.4226
rfoot -16.5713 -8.22754
rtoes -0.381525
lfemur -11.5418 6.2817 -12.0258
ltibia 30.2693
lfoot -18.5153 4.18455
ltoes -20.2851
196
root 7.34929 17.3867 -15.6638 3.51768 -5.05397 -2.065
lowerback 6.11948 0.711397 1.96838
upperback 0.721467 1.15222 2.61446
thorax -2.70302 0.563799 1.49335
lowerneck -19.4418 -1.31642 -8.84356
upperneck 17.4174 0.121299 3.00877
head 8.64388 -0.214657 2.48604
rclavicle -1.05356e-014 -2.14687e-014
rhumerus 8.04753 6.41508 -39.8818
rradius 111.78
rwrist -12.8122
rhand -34.5302 32.4453
rfingers 7.12502
rthumb -7.69136 2.60516
lclavicle -1.05356e-014 -2.14687e-014
lhumerus -5.27078 -16.8146 43.2445
lradius 113.777
lwrist 5.31903
lhand -11.3384 27.6477
lfingers 7.12502
lthumb 14.6945 57.1069
rfemur -12.1816 -3.25101 21.6033
rtibia 28.8141
rfoot -16.7403 -8.08404
rtoes -0.485918
lfemur -11.5725 6.3501 -12.6986
ltibia 30.532
lfoot -18.7285 3.78891
ltoes -19.6046
197
root 7.3376 17.3859 -15.6595 3.41745 -4.62033 -1.22639
lowerback 6.08892 0.627444 0.921276
upperback 0.826968 0.9602 2.36287
thorax -2.58733 0.478251 1.83819
lowerneck -19.8732 -1.31952 -8.47549
upperneck 17.5894 0.0732793 2.90883
head 8.78085 -0.225436 2.38974
rclavicle 2.38542e-014 9.54166e-015
rhumerus 6.01346 5.95199 -42.2097
rradius 112.801
rwrist -12.845
rhand -33.2385 33.7657
rfingers 7.12502
rthumb -6.4445 3.88374
lclavicle 2.38542e-014 9.54166e-015
lhumerus -5.35063 -16.8022 43.1044
lradius 114.347
lwrist 5.74038
lhand -10.8851 26.8995
lfingers 7.12502
lthumb 15.1312 56.3264
rfemur -12.3501 -3.67087 20.7256
rtibia 29.3682
rfoot -17.0703 -8.03002
rtoes 0.200526
lfemur -11.6681 6.56126 -13.5033
ltibia 30.6892
lfoot -18.711 2.95919
ltoes -19.4634
198
root 7.34016 17.3765 -15.6386 3.12585 -4.74816 -0.969313
lowerback 6.21081 0.736047 0.62503
upperback 0.976437 1.07995 2.21407
thorax -2.50696 0.539577 1.84052
lowerneck -20.0986 -1.33171 -8.12331
upperneck 17.6178 0.0307218 2.64306
head 8.83301 -0.250536 2.23641
rclavicle 7.85199e-015 1.43125e-014
rhumerus 3.84171 5.41281 -44.7811
rradius 113.945
rwrist -12.7286
rhand -31.6185 34.8379
rfingers 7.12502
rthumb -4.88035 4.91409
lclavicle 7.85199e-015 1.43125e-014
lhumerus -5.3552 -17.0168 43.0765
lradius 114.902
lwrist 5.55659
lhand -10.6216 26.4002
lfingers 7.12502
lthumb 15.385 55.8078
rfemur -12.3559 -3.45646 20.3704
rtibia 29.9665
rfoot -17.3706 -8.13666
rtoes 0.265903
lfemur -11.336 6.63404 -13.7763
ltibia 30.8216
lfoot -18.7654 2.92058
ltoes -19.9901
199
root 7.3315 17.3588 -15.6344 3.09816 -4.639 -0.760597
lowerback 6.19397 0.805342 0.138164
upperback 1.05326 1.13696 2.1685
thorax -2.42847 0.571557 2.06318
lowerneck -20.3005 -1.43011 -8.29327
upperneck 17.6405 -0.0881201 2.89
head 8.88283 -0.290034 2.33459
rclavicle 8.94531e-015 3.97569e-015
rhumerus 1.73934 4.66698 -47.5698
rradius 115.146
rwrist -12.5549
rhand -29.7319 36.0491
rfingers 7.12502
rthumb -3.05856 6.09133
lclavicle 8.94531e-015 3.97569e-015
lhumerus -5.06138 -17.1677 43.1055
lradius 115.386
lwrist 5.26111
lhand -10.4823 26.3211
lfingers 7.12502
lthumb 15.5191 55.7183
rfemur -12.6645 -3.32123 20.1693
rtibia 30.5799
rfoot -17.7345 -8.35464
rtoes 0.547317
lfemur -11.467 6.63892 -13.9601
ltibia 31.0588
lfoot -18.8134 2.80751
ltoes -21.0108
200
root 7.31528 17.3373 -15.6368 3.15758 -4.30916 -0.615633
lowerback 6.04451 0.781282 -0.470777
upperback 1.15616 1.0631 2.19839
thorax -2.2479 0.538038 2.44526
lowerneck -20.1812 -1.4946 -8.98783
upperneck 17.3593 -0.197159 3.89437
head 8.77074 -0.271171 2.77637
rclavicle 1.2921e-015 -9.54166e-015
rhumerus -0.353439 3.95255 -50.3933
rradius 116.259
rwrist -12.3822
rhand -27.9306 37.323
rfingers 7.12502
rthumb -1.31887 7.34733
lclavicle 1.2921e-015 -9.54166e-015
lhumerus -4.51665 -17.0527 42.974
lradius 115.649
lwrist 4.89635
lhand -10.5642 25.7142
lfingers 7.12502
lthumb 15.4403 55.1175
rfemur -13.0262 -3.40439 20.1114
rtibia 31.188
rfoot -18.0849 -8.63407
rtoes 0.325341
lfemur -11.8248 6.56422 -14.0315
ltibia 31.4092
lfoot -18.8785 2.49988
ltoes -21.3966
201
root 7.29626 17.3113 -15.6394 2.94101 -3.75236 -0.548719
lowerback 6.25887 0.64507 -0.900787
upperback 1.27665 0.853051 2.19292
thorax -2.23964 0.435135 2.69772
lowerneck -19.8417 -1.51407 -9.26035
upperneck 16.8975 -0.292181 4.44804
head 8.55932 -0.266005 2.99061
rclavicle -1.02374e-014 -3.22031e-014
rhumerus -2.73797 3.41033 -53.2171
rradius 117.483
rwrist -12.5273
rhand -26.3186 38.6963
rfingers 7.12502
rthumb 0.238056 8.7167
lclavicle -1.02374e-014 -3.22031e-014
lhumerus -4.01557 -16.7355 42.5431
lradius 116.077
lwrist 4.47439
lhand -10.5979 24.8078
lfingers 7.12502
lthumb 15.4078 54.2136
rfemur -13.0322 -3.78714 20.1211
rtibia 31.7859
rfoot -18.4206 -8.86369
rtoes -0.362065
lfemur -11.9862 6.55003 -13.9649
ltibia 31.8772
lfoot -19.058 2.01952
ltoes -21.9834
202
root 7.27113 17.2883 -15.6395 2.61036 -3.07244 -0.508844
lowerback 6.57528 0.541428 -1.32043
upperback 1.41857 0.685154 2.19347
thorax -2.26546 0.352929 2.94777
lowerneck -19.8493 -1.64497 -9.39787
upperneck 16.8767 -0.492824 4.74455
head 8.56887 -0.336943 3.08933
rclavicle 3.97569e-015 2.74323e-014
rhumerus -5.626 2.73202 -55.9003
rradius 118.848
rwrist -12.8198
rhand -24.7666 40.3421
rfingers 7.12502
rthumb 1.73696 10.3694
lclavicle 3.97569e-015 2.74323e-014
lhumerus -3.18564 -16.4877 41.9671
lradius 116.686
lwrist 4.12397
lhand -10.5858 24.8272
lfingers 7.12502
lthumb 15.4195 54.2321
rfemur -12.8729 -4.27102 20.1354
rtibia 32.3695
rfoot -18.8831 -8.97609
rtoes -0.160622
lfemur -12.0478 6.61098 -13.8295
ltibia 32.4007
lfoot -19.3643 1.29341
ltoes -22.1245
